# xmcd
#
# Track frame offsets:
#	150
#	22626
#	41862
#	65689
#	89301
#	114587
#	141297
#	164695
#	184410
#	210597
#	234978
#	247797
#
# Disc length: 3814 seconds
#
# Revision: 1
# Processed by: cddbd v1.5.2PL0 Copyright (c) Steve Scherf et al.
# Submitted via: audiograbber 1.83.01
#
DISCID=a20ee40c
DTITLE=Bruce Conte - Live at Shaver Lake Festival
DYEAR=2010
DGENRE=Blues
TTITLE0=Live for Today
TTITLE1=Cold Duck Time
TTITLE2=Why I sing the Blues
TTITLE3=Tore Down
TTITLE4=Lean on me
TTITLE5=The Sky is crying
TTITLE6=Route 66
TTITLE7=Unchain my Heart
TTITLE8=Povo
TTITLE9=Don't let nothing hold you back
TTITLE10=Balco Bebop
TTITLE11=CT's Jam
EXTD=featuring special guests:\nVictor Conte (Balco Bebop]\nChester Thompson (O
EXTD=rgan and Bass Pedals]\nRay Appleton (Harmonica)
EXTT0=
EXTT1=
EXTT2=
EXTT3=
EXTT4=
EXTT5=
EXTT6=
EXTT7=
EXTT8=
EXTT9=
EXTT10=
EXTT11=
PLAYORDER=
